<?xml version="1.0" standalone="no"?><!DOCTYPE svg PUBLIC "-//W3C//DTD SVG 1.1//EN" "http://www.w3.org/Graphics/SVG/1.1/DTD/svg11.dtd"><svg t="1633695470685" class="icon" viewBox="0 0 1024 1024" version="1.1" xmlns="http://www.w3.org/2000/svg" p-id="10638" width="32" height="32" xmlns:xlink="http://www.w3.org/1999/xlink"><defs><style type="text/css"></style></defs><path d="M0.2304 0h1023.424324v1023.424324H0.2304z" fill="#FFFFFF" fill-opacity="0" p-id="10639"></path><path d="M560.235397 22.387407l204.684865 303.189456c6.780186 13.816228 22.515335 19.061278 35.180211 11.76938a26.225248 26.225248 0 0 0 6.012618-4.861266l114.431632-76.309076c25.13786-15.735149 62.300956-26.353176 85.519895-7.291898 18.101818 14.903617 18.101818 38.762196 17.206322 54.881129l-26.992817 602.285215a57.247798 57.247798 0 0 1-37.099132 51.171216C840.525734 1001.356737 691.169747 1023.424324 511.302922 1023.424324c-179.738897 0-327.303892-22.003623-442.694984-66.074833a57.247798 57.247798 0 0 1-36.651384-50.659504L0.358328 285.91917c-1.790993-31.214442 8.187395-52.002748 31.598226-60.254107 20.084702-7.100006 45.542382 4.413517 58.782935 12.984697l147.756886 95.30639c10.554063 10.490099 26.992817 9.594603 36.58742-1.982885a28.591917 28.591917 0 0 0 4.093697-6.52433L467.807388 23.922544C485.397494-7.675682 539.702947-7.675682 560.235397 22.387407z" fill="#FFDA5E" p-id="10640"></path><path d="M793.576143 557.5104l-238.96958 286.558811a55.84059 55.84059 0 0 1-85.775751-0.063964l-238.585795-286.558811A27.952277 27.952277 0 0 1 251.672964 511.712162h94.858642c8.315323 0 16.182897 3.709913 21.49191 10.042351l122.299207 146.925355a27.952277 27.952277 0 0 0 42.855894 0l122.555062-146.925355A27.952277 27.952277 0 0 1 677.22559 511.712162h94.922606a27.952277 27.952277 0 0 1 21.427947 45.798238z" fill="#864D07" p-id="10641"></path></svg>