<?xml version="1.0" standalone="no"?><!DOCTYPE svg PUBLIC "-//W3C//DTD SVG 1.1//EN" "http://www.w3.org/Graphics/SVG/1.1/DTD/svg11.dtd"><svg t="1633693454820" class="icon" viewBox="0 0 3338 1024" version="1.1" xmlns="http://www.w3.org/2000/svg" p-id="3647" width="104.3125" height="32" xmlns:xlink="http://www.w3.org/1999/xlink"><defs><style type="text/css"></style></defs><path d="M912.389169 645.110601c-28.19642 137.69252-112.256999 240.844424-210.592014 254.942634-82.768242 11.748508-156.313905-42.882056-209.593392-82.239559a502.424966 502.424966 0 0 1-145.975218-172.58559 681.061037 681.061037 0 0 1-157.195043-141.921982C133.463056 434.694814 92.225792 383.588802 99.216154 319.911886 105.736576 258.99587 153.259293 217.347407 211.473153 166.476365a565.338229 565.338229 0 0 1 134.755392-87.467645h566.160624c173.173015-16.447912 320.205599 117.896283 324.670032 274.562643 4.640661 162.364387-144.917852 308.104635-324.670032 291.539238z m0 0" p-id="3648"></path><path d="M321.439192 262.93162a21.910968 21.910968 0 0 1-15.273061-37.184029L411.197797 119.658559a21.675998 21.675998 0 0 1 30.604865-1.233593l0.998623 0.998623a21.910968 21.910968 0 0 1 0 30.839835L336.947223 256.293713a21.147315 21.147315 0 0 1-15.508031 6.637907zM261.580542 323.083983a22.733364 22.733364 0 0 1-15.273062-5.874254 21.910968 21.910968 0 0 1 0-30.839835l8.928867-8.928866a21.675998 21.675998 0 0 1 30.604865 0 21.910968 21.910968 0 0 1 0 30.839835l-8.752639 8.928866a21.910968 21.910968 0 0 1-15.508031 5.874254z m0 0" fill="#FFFFFF" p-id="3649"></path><path d="M950.865535 289.659477L945.754933 502.718678l-273.622762 250.243231z m0 0" fill="#FF8A52" p-id="3650"></path><path d="M950.865535 289.659477l-278.498394 463.302432 84.354291-356.802203z m0 0" fill="#FF8A52" p-id="3651"></path><path d="M910.09821 357.448371l2.290959 39.768701-33.365764 11.748509z m0 0" fill="#FF8B53" p-id="3652"></path><path d="M910.09821 357.448371l-33.894447 16.330427 4.053236 35.245525z m0 0" fill="#FFA47B" p-id="3653"></path><path d="M672.425883 752.961909l-273.740247-250.243231L393.575034 289.659477z m-84.354291-358.329509l84.354291 357.272143L393.575034 289.659477z m0 0" fill="#FF8A52" p-id="3654"></path><path d="M465.710877 408.965581l-33.365765-11.748509 2.349702-39.768701z m0 0" fill="#FF8B53" p-id="3655"></path><path d="M465.710877 408.965581l4.053235-35.245526-35.245525-16.330427z m0 0" fill="#FFA47B" p-id="3656"></path><path d="M845.892611 193.85039l53.808169 224.748968-227.039926 334.832491z m0 0M845.892611 193.85039l-173.231757 559.346489-4.581919-397.804497z m0 0" fill="#FFCB71" p-id="3657"></path><path d="M821.455714 271.096833l14.274437 44.58559-38.006425 32.073428z m0 0" fill="#FF8741" p-id="3658"></path><path d="M821.455714 271.096833l-38.711336 25.494264 15.038091 50.988527z m0 0" fill="#FFE971" p-id="3659"></path><path d="M1766.035796 472.877467l3.877008 16.036714-55.629188 82.239559 6.872878-45.466728z m0 0" fill="#FFB259" p-id="3660"></path><path d="M672.425883 752.961909l-227.039926-334.832492L499.311611 193.85039z m0 0" fill="#FFCB71" p-id="3661"></path><path d="M676.949059 355.157412l-4.523176 397.804497L499.311611 193.85039z m0 0" fill="#FFCB71" p-id="3662"></path><path d="M546.951813 347.755851l-38.006425-32.13217 14.274438-44.58559z m0 0" fill="#FF8741" p-id="3663"></path><path d="M546.951813 347.755851l15.038091-50.988527-38.770078-25.494263z m0 0" fill="#FFE971" p-id="3664"></path><path d="M644.346948 568.216613l28.078935 184.745296-227.039926-334.832492L461.187701 352.631482z m0 0" fill="#FFB259" p-id="3665"></path><path d="M672.425883 123.359339l-127.471317 215.526388 127.471317 414.076182z m0 0" fill="#FFFCB0" p-id="3666"></path><path d="M672.425883 123.359339v629.60257l128.646168-409.494263z m0 0" fill="#FFD96F" p-id="3667"></path><path d="M672.425883 226.452501l-46.994034 67.788894 46.994034 57.097751z m0 0" fill="#FF8BA5" p-id="3668"></path><path d="M672.425883 226.452501L716.659018 294.241395l-44.35062 57.097751z m0 0" fill="#F05A57" p-id="3669"></path><path d="M3006.267095 80.829738H1084.387334L1005.848554 0H338.885727L0 349.81184l666.962827 672.308399 135.107848-134.520423 2204.020192-0.763653c171.821937 2.173474 312.745296-168.943552 323.906379-373.896282C3342.450665 288.367141 3195.594309 79.772373 3006.267095 80.829738zM112.961909 349.81184L381.826526 80.829738h564.750803l268.923359 268.92336-548.655346 548.596604z m0 0" fill="#FCC12D" p-id="3670"></path><path d="M1652.603947 638.472694h-425.707205l14.685635-40.297384h298.235888l49.872419-136.987609h127.530059z m-199.372189-269.745755l-33.659477 92.402019h170.05966l-58.213859 39.768701h-253.180358l62.325837-171.351996H1779.899036l-38.006425 39.240019zM1918.531436 637.944011l-50.518586-308.985773h129.233593l26.199174 225.160165 197.551171-225.160165h125.650298l-283.139055 308.92703zM2443.689766 638.472694h-122.125746l112.433226-308.927031h121.890776zM2700.042221 517.580542l-43.998164 120.892152h-125.062873L2643.41441 329.545663h265.69252l-51.340982 41.11978h-104.385498l-38.711336 106.382744h140.688389l53.749427-147.737494h126.883891l-68.435061 187.976136z" fill="#FFFFFF" p-id="3671"></path></svg>