<?xml version="1.0" standalone="no"?><!DOCTYPE svg PUBLIC "-//W3C//DTD SVG 1.1//EN" "http://www.w3.org/Graphics/SVG/1.1/DTD/svg11.dtd"><svg t="1633695039129" class="icon" viewBox="0 0 1094 1024" version="1.1" xmlns="http://www.w3.org/2000/svg" p-id="5743" width="136.75" height="128" xmlns:xlink="http://www.w3.org/1999/xlink"><defs><style type="text/css"></style></defs><path d="M1065.206 307.094c-5.932-6.497-19.174-21.822-36.652-41.913-53.037-60.346-141.7-161.545-182.555-204.518-16.737-17.69-37.676-39.865-78.53-41.56-2.79 0-11.864-0.353-125.987-0.353-129.519 0-312.391 0.353-312.391 0.353-19.209 0-48.87 4.414-81.355 41.56-23.729 27.295-61.087 69.208-98.41 111.475-47.492 53.848-96.009 108.72-118.678 135.274-39.795 44.667-40.854 107.026-2.825 162.922l2.472 3.39a81289.71 81289.71 0 0 0 257.942 290.039l179.059 201.41c33.191 37.146 59.321 42.266 80.295 42.266 22.317 0 47.458-5.12 80.26-42.266l185.38-208.225c108.862-122.35 201.375-225.951 251.975-283.542 34.25-39.9 43.996-114.512 0-166.312z m-51.66 123.021a122665.772 122665.772 0 0 1-251.303 282.871L576.899 921.212c-17.09 19.067-23.729 19.067-28.601 19.067-4.59 0-11.547 0-28.637-19.067l-179.412-201.41A504662.112 504662.112 0 0 1 84.037 431.81c-20.233-30.65-20.586-59.321-1.06-81.108 23.059-26.588 71.222-81.108 118.679-134.603 37.358-42.62 74.364-84.533 98.445-111.792 15.713-18.08 24.082-18.08 29.308-18.08 0 0 182.907-0.352 312.073-0.352 98.092 0 119.349 0.353 123.233 0.353 10.452 0.353 14.618 3.072 30.72 20.127 39.76 41.913 128.07 142.442 180.436 202.434 17.796 20.48 31.426 35.77 36.652 41.56 20.586 23.87 16.737 61.37 1.059 79.766z m-256.529-57.59L547.238 634.95 337.46 371.853c-2.12-3.425-2.825-3.425-5.933-3.425H229.198v46.01h2.472c19.173 0 26.483 4.766 34.533 15.324 0.706 1.06 1.766 2.401 3.531 4.45 46.045 61.333 226.834 275.702 277.822 342.51 50.953-66.808 231.424-281.494 278.175-343.217 1.06-1.342 2.119-2.366 2.825-3.39 8.015-10.24 14.971-15.324 34.533-15.324h2.472v-46.363h-101.94c-2.826 0-3.885 0-6.64 4.096z" p-id="5744" fill="#f4ea29"></path></svg>