<?xml version="1.0" standalone="no"?><!DOCTYPE svg PUBLIC "-//W3C//DTD SVG 1.1//EN" "http://www.w3.org/Graphics/SVG/1.1/DTD/svg11.dtd"><svg t="1633696202081" class="icon" viewBox="0 0 1024 1024" version="1.1" xmlns="http://www.w3.org/2000/svg" p-id="10819" xmlns:xlink="http://www.w3.org/1999/xlink" width="32" height="32"><defs><style type="text/css"></style></defs><path d="M88.01999 799.344328C37.357321 724.117941 5.629185 635.074463 0.511744 539.378311c5.117441 95.696152 36.845577 184.73963 87.508246 259.966017zM95.184408 809.067466c-2.046977-3.070465-4.605697-6.652674-6.652674-9.723138 2.046977 3.582209 4.093953 6.652674 6.652674 9.723138zM117.189405 838.236882c-2.046977-2.046977-3.582209-4.605697-5.117441-6.652674 2.046977 2.558721 3.582209 4.605697 5.117441 6.652674zM125.377311 847.448276c-1.535232-2.046977-3.070465-3.582209-4.605697-5.629186 1.535232 2.046977 3.070465 4.093953 4.605697 5.629186zM810.090955 96.71964c3.070465 2.046977 5.629185 4.093953 8.69965 6.14093-3.070465-2.046977-5.629185-4.093953-8.69965-6.14093zM851.030485 129.471264c1.535232 1.535232 3.582209 3.070465 5.117441 4.605698-1.535232-1.535232-3.070465-3.070465-5.117441-4.605698zM798.832584 88.531734c3.070465 2.046977 6.652674 4.605697 9.723138 6.652674-3.070465-2.046977-6.14093-4.093953-9.723138-6.652674zM102.348826 819.302349c-2.046977-3.070465-4.093953-5.629185-6.14093-8.69965 2.046977 3.070465 4.093953 5.629185 6.14093 8.69965zM538.866567 1.023488c96.207896 5.117441 185.251374 36.333833 259.966017 87.508246C723.606197 37.869065 634.562719 6.14093 538.866567 1.023488zM869.965017 146.870565l4.093954 4.093953-4.093954-4.093953zM109.513243 829.025487c-2.046977-2.558721-4.093953-5.117441-5.629185-7.676162 2.046977 2.558721 4.093953 5.117441 5.629185 7.676162zM526.072964 0.511744c4.093953 0 7.676162 0 11.770114 0.511744-3.582209 0-7.676162 0-11.770114-0.511744zM0.511744 538.866567c0-4.093953-0.511744-7.676162-0.511744-11.770115 0.511744 3.582209 0.511744 7.676162 0.511744 11.770115zM860.753623 138.170915c1.535232 1.535232 3.070465 2.558721 4.605697 4.093953-1.535232-1.535232-3.070465-2.558721-4.605697-4.093953zM141.753123 865.871064c-1.535232-1.535232-2.558721-3.070465-4.093953-4.605697 1.535232 1.535232 2.558721 3.070465 4.093953 4.605697zM511.744128 0.511744h13.305347-13.305347zM831.072464 112.583708c2.046977 1.535232 4.605697 3.582209 6.652673 5.117441-2.046977-1.535232-4.093953-3.070465-6.652673-5.117441zM150.452774 874.570715l-4.093953-4.093953 4.093953 4.093953zM133.565217 856.65967c-1.535232-1.535232-3.070465-3.582209-4.605697-5.117441 1.535232 2.046977 3.070465 3.582209 4.605697 5.117441zM0 525.561219V512.255872v13.305347zM820.837581 104.395802c2.558721 2.046977 5.117441 3.582209 7.676162 5.629186-2.558721-1.535232-5.117441-3.582209-7.676162-5.629186zM841.307346 120.771614c2.046977 1.535232 3.582209 3.070465 5.629186 4.605697-1.535232-1.023488-3.582209-2.558721-5.629186-4.605697z" fill="#FFCC6A" p-id="10820"></path><path d="M846.936532 125.889055c1.535232 1.023488 2.558721 2.558721 4.093953 3.582209-1.023488-1.023488-2.558721-2.558721-4.093953-3.582209zM856.147926 134.076962c1.535232 1.535232 3.070465 3.070465 4.605697 4.093953-1.535232-1.535232-3.070465-2.558721-4.605697-4.093953zM874.570715 151.476262l-0.511744-0.511744 0.511744 0.511744zM865.35932 142.264868l4.605697 4.605697-4.605697-4.605697zM88.01999 799.344328zM112.071964 831.584208c-1.023488-1.023488-1.535232-2.046977-2.558721-3.070465 1.023488 1.535232 2.046977 2.046977 2.558721 3.070465zM120.25987 841.81909c-1.023488-1.023488-2.046977-2.558721-3.070465-3.582208 1.023488 1.535232 2.046977 2.558721 3.070465 3.582208zM96.207896 810.602699c-0.511744-0.511744-0.511744-1.023488-1.023488-1.535233 0 0.511744 0.511744 1.023488 1.023488 1.535233zM103.884058 821.349325c-0.511744-0.511744-1.023488-1.535232-1.535232-2.046976 0.511744 0.511744 1.023488 1.535232 1.535232 2.046976zM146.358821 870.476762l-4.605698-4.605698 4.605698 4.605698zM128.95952 851.542229c-1.023488-1.535232-2.558721-2.558721-3.582209-4.093953 1.023488 1.535232 2.558721 3.070465 3.582209 4.093953zM150.964518 875.082459l-0.511744-0.511744 0.511744 0.511744zM137.65917 861.265367c-1.535232-1.535232-3.070465-3.070465-4.093953-4.605697 1.535232 1.535232 2.558721 3.070465 4.093953 4.605697zM808.555722 95.696152c0.511744 0.511744 1.023488 0.511744 1.535233 1.023488-0.511744-0.511744-1.023488-1.023488-1.535233-1.023488zM828.513743 110.024988c1.023488 1.023488 2.046977 1.535232 3.070465 2.55872-1.535232-0.511744-2.046977-1.535232-3.070465-2.55872zM798.832584 88.531734zM837.725137 117.701149c1.023488 1.023488 2.558721 2.046977 3.582209 3.070465-1.023488-1.023488-2.046977-2.046977-3.582209-3.070465zM818.790605 102.86057c0.511744 0.511744 1.535232 1.023488 2.046976 1.535232-0.511744-0.511744-1.535232-1.023488-2.046976-1.535232zM538.354823 1.023488zM0.511744 539.378311c0-0.511744 0-0.511744 0 0 0-0.511744 0-0.511744 0 0zM525.049475 0.511744h1.535233-1.535233zM0 526.584708v-1.535233 1.535233z" fill="#FFFFFF" p-id="10821"></path><path d="M874.570715 151.476262l-314.210895 314.210894c-2.046977-2.558721-3.582209-5.629185-5.629185-8.69965-3.582209-6.14093-6.14093-12.793603-8.69965-19.446277-1.023488-3.582209-2.046977-6.652674-3.070465-10.234882 12.281859 49.127436 54.244878 85.461269 104.907546 85.461269 38.892554 0 72.155922-20.981509 91.602199-52.709645-6.14093-9.211394-9.723138-20.469765-9.723139-32.23988 0-31.216392 24.563718-56.803598 54.244878-56.803598s54.244878 25.587206 54.244878 56.803598c0.511744 28.657671-21.493253 52.709645-49.127437 55.78011L674.990505 768.127936H348.497751L234.378811 483.598201c-27.634183-2.558721-49.63918-26.610695-49.639181-56.291854 0-31.216392 24.563718-56.803598 54.244878-56.803598s54.244878 25.587206 54.244877 56.803598c0 12.281859-3.582209 23.028486-9.723138 32.23988 19.446277 31.728136 52.709645 52.709645 91.602199 52.709645 50.662669 0 93.137431-36.333833 104.907546-85.461269h4.093953V362.314843c-16.375812-9.723138-27.122439-28.145927-27.122439-49.127437C457.49925 281.971014 481.551224 256.383808 511.744128 256.383808s54.244878 25.587206 54.244877 56.803598c0 20.981509-10.746627 38.892554-27.122438 49.127437v64.991504h4.093953c1.023488 3.582209 2.046977 6.652674 3.070465 10.234882 2.558721 6.652674 5.117441 13.305347 8.69965 19.446277 1.535232 3.070465 3.582209 6.14093 5.629185 8.69965l314.210895-314.210894-0.511744-0.511744-4.093954-4.093953-4.605697-4.605697c-1.535232-1.535232-3.070465-2.558721-4.605697-4.093953-1.535232-1.535232-3.070465-3.070465-4.605697-4.093953-1.535232-1.535232-3.582209-3.070465-5.117441-4.605698-1.535232-1.023488-2.558721-2.558721-4.093953-3.582209-2.046977-1.535232-3.582209-3.070465-5.629186-4.605697-1.023488-1.023488-2.558721-2.046977-3.582209-3.070464-2.046977-1.535232-4.093953-3.582209-6.652673-5.117442-1.023488-1.023488-2.046977-1.535232-3.070465-2.55872-2.558721-2.046977-5.117441-4.093953-7.676162-5.629186-0.511744-0.511744-1.535232-1.023488-2.046976-1.535232-3.070465-2.046977-5.629185-4.093953-8.699651-6.14093-0.511744-0.511744-1.023488-0.511744-1.535232-1.023488-3.070465-2.046977-6.652674-4.605697-9.723138-6.652674h-0.511745C723.606197 37.869065 634.562719 6.14093 538.866567 1.023488h-0.511744c-4.093953 0-7.676162-0.511744-11.770115-0.511744H511.744128C229.261369 0.511744 0 229.773113 0 512.255872v14.84058c0 4.093953 0 7.676162 0.511744 11.770115v0.511744c5.117441 96.207896 36.333833 185.251374 87.508246 259.966017v0.511744c2.046977 3.070465 4.605697 6.652674 6.652674 9.723138 0.511744 0.511744 0.511744 1.023488 1.023488 1.535233 2.046977 3.070465 4.093953 5.629185 6.140929 8.69965 0.511744 0.511744 1.023488 1.535232 1.535233 2.046976 2.046977 2.558721 4.093953 5.117441 5.629185 7.676162 1.023488 1.023488 1.535232 2.046977 2.558721 3.070465 1.535232 2.046977 3.582209 4.605697 5.117441 6.652674 1.023488 1.023488 2.046977 2.558721 3.070465 3.582209 1.535232 2.046977 3.070465 3.582209 4.605697 5.629185 1.023488 1.535232 2.558721 2.558721 3.582209 4.093953 1.535232 1.535232 3.070465 3.582209 4.605697 5.117441 1.535232 1.535232 2.558721 3.070465 4.093953 4.605698s2.558721 3.070465 4.093953 4.605697l4.605697 4.605697 4.093953 4.093953 0.511744 0.511744L322.398801 703.136432l-171.434283 171.946027c92.625687 92.113943 220.049975 148.917541 360.77961 148.917541 282.482759 0 511.744128-229.261369 511.744128-511.744128 0-140.729635-56.803598-268.153923-148.917541-360.77961z" fill="#FFCC6A" p-id="10822"></path><path d="M234.890555 483.086457c-27.634183-2.558721-49.63918-26.610695-49.639181-56.291854 0-31.216392 24.563718-56.803598 54.244878-56.803599s54.244878 25.587206 54.244877 56.803599c0 12.281859-3.582209 23.028486-9.723138 32.23988 19.446277 31.728136 52.709645 52.709645 91.602199 52.709645 50.662669 0 93.137431-36.333833 104.907546-85.461269h4.093953V361.803098c-16.375812-9.723138-27.122439-28.145927-27.122439-49.127436 0.511744-31.216392 24.563718-56.803598 54.756622-56.803598s54.244878 25.587206 54.244878 56.803598c0 20.981509-10.746627 38.892554-27.122439 49.127436v64.991505h4.093953c3.582209 13.817091 9.723138 27.122439 17.3993 38.380809L875.082459 150.964518l-0.511744-0.511744-4.093953-4.093953-4.605698-4.605698c-1.535232-1.535232-3.070465-2.558721-4.605697-4.093953-1.535232-1.535232-3.070465-3.070465-4.605697-4.093953-1.535232-1.535232-3.582209-3.070465-5.117441-4.605697-1.535232-1.023488-2.558721-2.558721-4.093953-3.582209-2.046977-1.535232-3.582209-3.070465-5.629186-4.605697-1.023488-1.023488-2.558721-2.046977-3.582208-3.070465-2.046977-1.535232-4.093953-3.582209-6.652674-5.117441-1.023488-1.023488-2.046977-1.535232-3.070465-2.55872-2.558721-2.046977-5.117441-4.093953-7.676162-5.629186-0.511744-0.511744-1.535232-1.023488-2.046976-1.535232-3.070465-2.046977-5.629185-4.093953-8.69965-6.14093-0.511744-0.511744-1.023488-0.511744-1.535233-1.023488-3.070465-2.046977-6.652674-4.605697-9.723138-6.652674h-0.511744C724.117941 37.357321 635.074463 5.629185 539.378311 0.511744h-0.511744c-4.093953 0-7.676162-0.511744-11.770115-0.511744h-14.84058C229.773113 0 0.511744 229.261369 0.511744 511.744128v14.84058c0 4.093953 0 7.676162 0.511744 11.770115v0.511744c5.117441 96.207896 36.333833 185.251374 87.508246 259.966017v0.511744c2.046977 3.070465 4.605697 6.652674 6.652674 9.723138 0.511744 0.511744 0.511744 1.023488 1.023488 1.535233 2.046977 3.070465 4.093953 5.629185 6.14093 8.69965 0.511744 0.511744 1.023488 1.535232 1.535232 2.046976 2.046977 2.558721 4.093953 5.117441 5.629185 7.676162 1.023488 1.023488 1.535232 2.046977 2.558721 3.070465 1.535232 2.046977 3.582209 4.605697 5.117441 6.652674 1.023488 1.023488 2.046977 2.558721 3.070465 3.582209 1.535232 2.046977 3.070465 3.582209 4.605697 5.629185 1.023488 1.535232 2.558721 2.558721 3.582209 4.093953 1.535232 1.535232 3.070465 3.582209 4.605697 5.117441s2.558721 3.070465 4.093953 4.605697c1.535232 1.535232 2.558721 3.070465 4.093953 4.605698l4.605697 4.605697 4.093953 4.093953 0.511745 0.511744 172.457771-172.969515-88.01999-219.538231z" fill="#FFDB97" p-id="10823"></path></svg>