<?xml version="1.0" standalone="no"?><!DOCTYPE svg PUBLIC "-//W3C//DTD SVG 1.1//EN" "http://www.w3.org/Graphics/SVG/1.1/DTD/svg11.dtd"><svg t="1633693756046" class="icon" viewBox="0 0 1024 1024" version="1.1" xmlns="http://www.w3.org/2000/svg" p-id="5099" width="16" height="16" xmlns:xlink="http://www.w3.org/1999/xlink"><defs><style type="text/css"></style></defs><path d="M914.432 219.648H109.568C36.352 219.648 0 256 0 329.216v365.568c0 73.216 36.352 109.568 109.568 109.568h804.352c73.216 0 109.568-36.352 109.568-109.568V329.216c0.512-73.216-35.84-109.568-109.056-109.568zM254.976 557.056c-2.048 22.016-10.752 40.448-24.576 55.296-8.704 9.216-20.48 16.384-34.816 21.504-17.408 6.144-35.84 9.216-54.272 9.216-30.208 0-53.248-7.168-69.12-20.992-10.752-9.728-17.92-22.016-21.504-36.864-1.024-5.12-1.536-12.8-2.048-22.528h62.976c2.56 8.704 6.144 14.848 9.728 18.944 7.168 7.68 17.408 11.776 29.696 11.776 14.848 0 25.6-4.608 32.256-14.336 3.072-4.608 5.12-9.728 5.632-15.36 0.512-6.144-0.512-11.776-3.584-15.872-4.096-5.12-9.728-9.216-16.896-11.776-8.704-3.072-19.456-6.144-31.744-8.704-22.528-5.12-38.4-10.752-48.128-16.384-19.968-12.288-28.16-30.72-25.6-56.32s13.312-45.568 33.792-60.416c16.896-12.8 39.936-18.944 68.096-18.944 31.232 0 54.784 7.68 69.12 23.04 7.168 7.68 12.288 18.432 14.848 31.232 0.512 3.584 1.536 8.704 2.048 15.872l-61.44-0.512c-4.096-14.848-14.848-23.04-30.72-23.04-10.24 0-19.456 3.584-26.112 11.264-3.584 4.096-5.632 8.704-6.144 13.824-1.536 13.824 9.728 23.552 33.28 28.672 23.552 5.632 39.936 9.728 48.128 12.8 19.456 7.168 32.256 16.896 39.424 28.672 6.656 11.264 9.216 24.576 7.68 39.936zM379.392 650.24c-10.752 0-20.48-10.24-28.672-31.232L256 373.76h73.216l66.048 168.448L501.248 373.76h73.216l-158.72 245.76c-13.824 20.48-26.112 30.72-36.352 30.72z m174.08-4.096l38.4-272.384h68.096l-38.912 272.384h-67.584z m418.304-170.496c-4.096 29.184-19.456 55.296-42.496 73.216-22.528 17.92-50.688 27.648-79.36 27.648h-114.176l-9.728 68.608h-67.584l19.968-138.752h188.416c8.704 0 17.408-3.072 24.576-8.704 6.656-5.12 11.264-12.8 12.8-21.504 2.048-8.192-0.512-16.896-6.144-23.04-6.144-5.632-13.824-8.704-22.528-8.192h-187.392L742.4 373.76h137.216c27.136-1.536 53.76 8.192 73.216 27.136 17.408 20.48 24.576 48.128 18.944 74.752z" fill="#E5AC61" p-id="5100"></path></svg>