<?xml version="1.0" standalone="no"?><!DOCTYPE svg PUBLIC "-//W3C//DTD SVG 1.1//EN" "http://www.w3.org/Graphics/SVG/1.1/DTD/svg11.dtd"><svg t="1633695179110" class="icon" viewBox="0 0 1024 1024" version="1.1" xmlns="http://www.w3.org/2000/svg" p-id="6088" width="16" height="16" xmlns:xlink="http://www.w3.org/1999/xlink"><defs><style type="text/css"></style></defs><path d="M964.48 371.413333L735.573333 160a51.626667 51.626667 0 0 0-35.2-13.866667H323.84a50.773333 50.773333 0 0 0-35.2 13.866667L59.733333 371.413333a51.626667 51.626667 0 0 0-1.493333 74.666667l417.066667 417.28a51.84 51.84 0 0 0 73.386666 0l417.28-417.28a51.84 51.84 0 0 0-1.493333-74.666667zM531.84 737.493333a27.946667 27.946667 0 0 1-39.466667 0L213.333333 458.24h90.453334L512 666.666667l208.426667-208.426667H810.666667z" fill="#f4ea2a" p-id="6089"></path></svg>